<svg width="157" height="33" viewBox="0 0 157 33" fill="none" xmlns="http://www.w3.org/2000/svg">
<path d="M150.18 25.7658C148.486 25.7658 147.035 26.4907 145.826 27.4574C143.89 23.5908 138.327 20.9325 131.554 20.9325C127.441 20.9325 123.571 21.8992 120.91 23.8325C119.217 20.4492 115.588 18.0326 111.476 18.0326C108.573 18.0326 105.913 19.2409 103.977 20.9325C100.107 15.3743 92.3663 11.2661 83.1743 11.2661C76.885 11.2661 71.0795 13.1994 66.7253 16.341C63.3388 6.91618 54.1467 0.149658 43.5032 0.149658C32.8598 0.149658 23.9096 6.91618 20.2811 16.341C18.5878 15.616 16.6527 15.1327 14.4756 15.1327C6.73491 15.1327 0.6875 21.4159 0.6875 28.9074C0.6875 30.1157 0.929389 31.324 1.17129 32.5323H19.7974H27.7799H60.436H67.2091H101.317H105.913H117.04H121.394H143.89H146.067H156.469V32.2906C156.469 28.6657 153.566 25.7658 150.18 25.7658Z" fill="#F4EBFF"/>
</svg>
