<svg width="20" height="20" viewBox="0 0 20 20" fill="none" xmlns="http://www.w3.org/2000/svg">
<path d="M0.505859 9.95743C0.505859 15.274 4.86001 19.6239 10.1817 19.6239C15.5035 19.6239 19.8576 15.274 19.8576 9.95743C19.8576 4.64087 15.5035 0.290955 10.1817 0.290955C4.86001 0.290955 0.505859 4.64087 0.505859 9.95743Z" fill="#E1D7EF"/>
<path d="M3.16699 9.95762C3.16699 13.8242 6.3117 16.9658 10.182 16.9658C14.0524 16.9658 17.197 13.8242 17.197 9.95762C17.197 6.09104 14.0524 2.94946 10.182 2.94946C6.3117 2.94946 3.16699 6.09104 3.16699 9.95762Z" fill="white"/>
<path d="M6.06738 9.9574C6.06738 12.374 8.00251 14.3074 10.4215 14.3074C12.8404 14.3074 14.7756 12.374 14.7756 9.9574C14.7756 7.54076 12.8404 5.60748 10.4215 5.60748C8.00251 5.84915 6.06738 7.78243 6.06738 9.9574Z" fill="#E1D7EF"/>
<path opacity="0.5" d="M14.0513 2.22412C15.5026 2.9491 16.7121 4.15741 17.6797 5.36571L10.4229 9.7156L14.0513 2.22412Z" fill="white"/>
<path opacity="0.5" d="M10.1806 9.95776L6.31014 17.6909C4.85874 16.9659 3.64924 15.7576 2.68164 14.3077L10.1806 9.95776Z" fill="white"/>
</svg>

