<svg width="251" height="100" viewBox="0 0 251 100" fill="none" xmlns="http://www.w3.org/2000/svg">
<path d="M9.28529 65.1613L3.23788 63.953C1.06081 63.4696 -0.390569 61.2947 0.0932239 59.3614L6.38253 28.4288C6.86633 26.2539 8.8015 24.8039 10.9786 25.2872L17.026 26.4955C19.2031 26.9789 20.6544 29.1538 20.1706 31.0871L13.8813 62.0197C13.6394 64.1946 11.4624 65.6446 9.28529 65.1613Z" fill="#A39BAD"/>
<path d="M9.52872 63.9528L9.04492 70.236C9.52871 72.411 10.4963 74.1026 11.9477 75.7942C12.9153 77.0025 14.1248 77.9692 15.5761 78.4525C16.0599 78.6942 16.5437 78.9358 17.0275 78.9358L30.0899 84.494H236.428L241.749 83.769C244.652 83.2857 247.313 81.3524 248.039 78.4525C248.039 78.2108 248.281 77.9692 248.281 77.7275L248.522 77.0025L248.764 76.2776L250.216 69.0277L250.7 66.1278C250.7 65.8861 250.7 65.4028 250.941 65.1611C250.941 64.6778 250.941 64.1945 250.941 63.7111C250.941 63.2278 250.7 62.7445 250.7 62.5028C250.7 62.5028 250.7 62.2612 250.458 62.2612L245.378 48.9698C245.136 48.2449 244.894 47.7615 244.652 47.2782C244.41 47.0366 244.168 46.5532 243.926 46.3115C243.443 45.8282 242.959 45.1033 242.475 44.8616C242.233 44.6199 241.991 44.3783 241.508 44.1366C241.508 44.1366 241.266 44.1366 241.266 43.8949C241.024 43.6533 240.782 43.6533 240.54 43.4116C240.298 43.4116 240.056 43.1699 239.814 43.1699C239.572 43.1699 239.572 42.9283 239.33 42.9283C238.847 42.6866 238.605 42.6866 238.121 42.445L182.485 28.6703C181.517 28.1869 180.55 27.7036 179.582 26.9786L155.634 6.43744C152.248 3.29584 149.829 2.81254 144.507 1.84589C114.028 -0.570722 77.0179 -0.32906 46.297 1.84589C40.0077 1.84589 34.2022 4.98749 31.0575 10.304C31.0575 10.304 15.3342 36.4034 15.3342 36.6451L15.0923 38.0951L10.4963 58.153V58.3946C10.2544 59.1196 10.2544 59.8446 10.2544 60.5696C9.28682 61.7779 9.28682 62.7445 9.52872 63.9528Z" fill="#C1B9CD"/>
<path d="M115.236 72.8943V6.19579C115.236 4.74582 116.446 3.77917 117.655 3.77917C126.605 4.02084 135.314 4.50414 143.296 5.22912C148.618 5.95411 150.069 6.43743 152.73 8.85404L172.808 26.012C175.227 28.187 176.678 31.0869 176.678 34.2285V72.6527C176.678 74.8277 174.985 76.5193 172.808 76.5193H119.107C116.93 76.5193 115.236 74.8276 115.236 72.8943Z" fill="#CCC3D9"/>
<path d="M117.896 7.64592V30.1204C117.896 31.0871 118.622 31.812 119.59 31.812L172.081 33.0203C173.049 33.0203 173.775 32.0537 173.291 31.087C172.807 30.1204 172.081 29.1538 171.114 28.1871L151.036 11.0292C149.101 9.09591 148.134 8.85422 143.054 8.12924C135.555 7.64591 127.572 7.16259 119.106 6.92093C118.38 6.43761 117.896 6.92094 117.896 7.64592Z" fill="#DDD3EA"/>
<path d="M238.118 52.1117L241.263 59.6032C241.747 61.0532 243.44 62.0198 245.375 62.5031C245.859 62.5031 246.343 62.7448 246.827 62.7448H249.488C249.729 62.7448 249.971 62.7448 250.213 62.5031C250.213 62.5031 250.213 62.2615 249.971 62.2615L244.892 48.9701C244.65 48.2451 244.408 47.7618 244.166 47.2785C243.924 47.0368 243.682 46.5535 243.44 46.3118H242.714C240.779 46.3118 239.328 47.0368 238.36 48.2451C237.635 49.2118 237.635 50.6617 238.118 52.1117Z" fill="#A39BAD"/>
<path d="M239.085 51.6283L242.23 59.1198C242.714 60.3281 244.165 61.0531 245.617 61.5364C246.1 61.5364 246.342 61.7781 246.826 61.7781H249.487C250.455 61.7781 250.455 59.8448 249.245 56.2199C248.278 53.32 247.31 51.6283 246.1 48.9701C245.617 48.0034 244.649 47.2784 243.681 47.2784H242.714C239.569 47.2784 238.118 49.2117 239.085 51.6283Z" fill="#D0C7DD"/>
<path d="M15.5762 78.4523C16.06 78.694 16.5438 78.9356 17.0276 78.9356L30.09 84.4939H236.428L241.749 83.7689C244.652 83.2855 247.313 81.3523 248.039 78.4523H15.5762Z" fill="#A39BAD"/>
<path d="M231.105 84.4944H236.427L241.749 83.7694C244.652 83.2861 247.313 81.3528 248.038 78.4528C248.038 78.2111 248.28 77.9695 248.28 77.7278L248.522 77.0028L248.764 76.2779L250.215 69.028L250.699 66.128C250.699 65.8863 250.699 65.403 250.941 65.1614H244.894C240.056 65.1614 235.943 68.303 234.734 72.8946L231.105 84.4944Z" fill="#A39BAD"/>
<path d="M8.80078 68.7865C9.04268 72.6531 9.04267 73.8614 11.4616 76.0364C14.3644 78.6947 29.8458 84.4945 29.8458 84.4945L28.1525 69.7532C26.7011 64.4366 22.1051 60.8117 16.5415 60.8117H9.28457C9.28457 61.7784 8.80078 68.7865 8.80078 68.7865Z" fill="#A39BAD"/>
<path d="M242.958 72.1693C242.716 73.6193 243.2 74.8276 244.168 74.8276C245.135 74.8276 246.103 73.6193 246.345 72.1693C246.587 70.7193 246.103 69.511 245.135 69.511C244.168 69.2694 243.2 70.7193 242.958 72.1693Z" fill="#D0C7DD"/>
<path d="M14.8486 68.0613C15.0905 70.2363 14.6067 71.9279 13.6391 71.9279C12.6715 71.9279 11.7039 70.2363 11.462 68.0613C11.2201 65.8864 11.7039 64.1948 12.6715 64.1948C13.6391 63.9531 14.6067 65.8864 14.8486 68.0613Z" fill="#D0C7DD"/>
<path d="M9.52734 58.3949H10.253C11.4625 58.3949 12.4301 57.6699 12.672 56.4616L16.3004 41.4786C16.5423 40.7536 16.3005 40.0286 15.8167 39.3036C15.3329 38.8203 14.6072 38.337 13.8815 38.337L9.52734 58.3949Z" fill="#A39BAD"/>
<path d="M8.80185 50.1785L13.156 51.1452L11.9465 56.2201C11.7046 56.9451 11.2208 57.4284 10.4951 57.4284H9.52754C8.31805 57.4284 7.35047 56.2201 7.83426 55.2534L8.80185 50.1785Z" fill="#D0C7DD"/>
<path d="M11.2197 40.7532C11.4616 40.0282 12.1873 39.3033 12.913 39.3033H14.1225C15.0901 39.3033 15.8158 40.2699 15.5739 41.2366L13.1549 51.1446L8.80078 50.178L11.2197 40.7532Z" fill="#C1B9CD"/>
<path d="M174.017 31.3284C174.259 34.9533 170.63 34.9534 167.727 35.195C167.485 35.195 167.002 35.195 166.76 35.195L169.904 21.9036C172.081 22.8703 173.775 28.1868 174.017 31.3284Z" fill="#C1B9CD"/>
<g opacity="0.75">
<path opacity="0.75" d="M120.074 7.88708L137.733 30.8449L153.456 31.0866L136.281 8.61208C130.96 8.12875 125.638 7.88708 120.074 7.88708Z" fill="white"/>
<path opacity="0.75" d="M138.217 8.61218L155.15 31.0867H160.229L143.539 8.85382C143.297 8.85382 143.055 8.85382 142.813 8.85382C141.361 8.85382 139.91 8.85384 138.217 8.61218Z" fill="white"/>
</g>
<path d="M180.307 84.4936H229.654L229.17 78.4521L228.686 74.5855C227.96 66.369 220.945 60.0858 212.721 60.0858H196.756C188.289 60.0858 181.516 66.6107 180.79 74.8272L180.549 78.4521L180.307 84.4936Z" fill="#A39BAD"/>
<path d="M73.8719 3.5375C82.5802 3.05417 86.9343 3.29582 95.1588 3.29582C99.9968 3.29582 104.835 3.29584 109.673 3.5375C111.124 3.5375 112.575 4.7458 112.575 6.43742V73.8609C112.575 75.3109 111.366 76.5192 109.915 76.5192H88.6276C87.4181 76.5192 86.2087 75.5525 86.2087 74.3442V74.1026C85.2411 63.9528 76.5328 55.978 66.3731 55.978H63.2285C59.3581 55.978 55.9716 52.8364 55.9716 48.7281V34.4701C55.7297 34.4701 64.6799 4.02082 73.8719 3.5375Z" fill="#CCC3D9"/>
<path d="M45.5717 30.1204L26.4619 29.6371C25.2524 29.6371 24.5267 28.4288 25.2524 27.2204C28.1552 22.3872 31.2998 16.5873 34.4445 11.9957C38.0729 6.43751 40.9757 4.98755 56.2152 4.98755C57.4247 4.98755 58.1504 6.19584 57.6666 7.16249C55.0057 13.204 50.1678 22.1455 47.5069 28.9121C46.7812 29.6371 46.2974 30.1204 45.5717 30.1204Z" fill="#DDD3EA"/>
<path d="M61.777 30.3622L108.463 31.3288C109.189 31.3288 109.914 30.6038 109.914 29.8788V7.64595C109.914 6.43764 109.673 5.95432 108.463 5.95432C105.318 5.95432 103.383 5.95431 100.239 5.71265C98.5453 5.71265 96.852 5.71265 95.1587 5.71265C92.7397 5.71265 90.5627 5.71265 88.6275 5.71265C86.9342 5.71265 85.241 5.71265 83.5477 5.71265C80.403 5.71265 77.5003 5.71266 74.1137 5.95432C73.6299 5.95432 72.9042 6.19599 72.4204 6.67932C68.792 9.09593 64.196 18.2791 60.5675 28.4289C60.3256 29.3955 60.8094 30.3622 61.777 30.3622Z" fill="#DDD3EA"/>
<path d="M33.7168 84.4936H83.0637L82.5799 78.4521L82.0961 74.5855C81.3704 66.369 74.3554 60.0858 66.1309 60.0858H50.1658C41.6994 60.0858 34.6844 66.6107 34.2006 74.8272L33.9587 78.4521L33.7168 84.4936Z" fill="#A39BAD"/>
<path d="M119.347 38.5785L128.297 38.8202C128.781 38.8202 129.023 38.5785 129.023 38.0952V36.4036C129.023 35.9202 128.781 35.6786 128.297 35.6786L119.347 35.4369C118.863 35.4369 118.621 35.6786 118.621 36.1619V37.8535C118.621 38.3368 118.863 38.5785 119.347 38.5785Z" fill="white"/>
<path d="M62.2628 37.1283L71.213 37.37C71.6968 37.37 71.9387 37.1283 71.9387 36.645V34.9533C71.9387 34.47 71.6968 34.2283 71.213 34.2283L62.2628 33.9867C61.779 33.9867 61.5371 34.2283 61.5371 34.7117V36.4033C61.5371 36.8867 62.0209 37.1283 62.2628 37.1283Z" fill="white"/>
<path opacity="0.15" d="M1.0611 54.7698L249.247 72.6528L248.521 76.2777L248.279 77.0026L248.037 77.7276C248.037 77.9693 248.037 78.211 247.796 78.4526C247.07 81.3526 244.409 83.5275 241.506 83.7692L236.185 84.4942H230.863H229.653H180.306H83.064H33.7171H30.0887C30.0887 84.4942 14.3654 78.6943 11.7045 76.036C9.28558 73.8611 9.28558 72.6528 9.04368 68.7862C9.04368 68.7862 9.04368 67.0945 9.28558 65.1612L3.48006 63.9529C1.303 63.4696 -0.148382 61.2947 0.335411 59.3614L1.0611 54.7698Z" fill="#8E8796"/>
<path d="M58.3904 57.428H49.1983C39.5224 57.428 31.298 64.9196 30.5723 74.586C31.0561 63.9529 35.6521 52.1115 58.3904 57.428Z" fill="#CCC3D9"/>
<path d="M206.189 57.428H196.997C187.321 57.428 179.097 64.9196 178.371 74.586C178.855 63.9529 183.451 52.1115 206.189 57.428Z" fill="#CCC3D9"/>
<g opacity="0.75">
<path opacity="0.75" d="M70.7266 10.3044L85.4823 29.6373L101.206 29.879L84.0309 7.16284H83.5471C80.4024 7.16284 77.4997 7.16286 74.1131 7.40452C73.8712 7.40452 73.6293 7.40451 73.1455 7.88783C72.4198 8.37115 71.6941 9.09614 70.7266 10.3044Z" fill="white"/>
<path opacity="0.75" d="M85.9648 7.1629L103.139 29.879H108.219L91.0447 7.1629C90.5609 7.1629 90.0771 7.1629 89.5933 7.1629H88.3838C87.4162 7.1629 86.6905 7.1629 85.9648 7.1629Z" fill="white"/>
</g>
<g opacity="0.75">
<path opacity="0.75" d="M31.5391 19.0043L39.0379 28.6707L45.811 28.9124C45.811 28.9124 46.0529 28.9124 46.0529 28.6707C47.0204 26.4958 47.988 24.0792 49.1975 21.6626L39.2798 8.85455C37.5865 9.8212 36.6189 11.2712 35.4094 12.9628C34.1999 14.6544 32.7485 16.8293 31.5391 19.0043Z" fill="white"/>
<path opacity="0.75" d="M40.7305 8.12923L49.9225 20.2123C50.6482 18.7623 51.132 17.554 51.8577 16.1041L45.0846 7.1626C43.1494 7.40426 41.94 7.64591 40.7305 8.12923Z" fill="white"/>
</g>
</svg>
