<svg width="887" height="267" viewBox="0 0 887 267" fill="none" xmlns="http://www.w3.org/2000/svg">
<path d="M483.613 0.506348H493.772C495.708 0.506348 497.401 1.9563 497.643 3.88959L501.997 37.7221H475.146L479.501 3.88959C479.984 1.9563 481.678 0.506348 483.613 0.506348Z" fill="#F9B233"/>
<path d="M872.824 173.777L871.131 174.019C869.438 174.26 867.986 171.602 867.502 167.977L865.325 146.953C864.842 143.086 866.051 139.703 867.986 139.461H869.196C870.889 139.461 872.341 141.878 872.824 145.261L875.485 166.044C875.969 169.911 874.76 173.535 872.824 173.777Z" fill="#E94E1B"/>
<path d="M16.0267 180.302L9.97929 179.819C6.10894 179.577 2.96427 176.194 2.72238 172.086L0.0614916 143.086C-0.422303 138.978 1.99668 135.111 5.62513 134.386L9.4955 133.42L16.0267 180.302Z" fill="#FFC55E"/>
<path d="M18.4459 181.752L9.7377 181.027L4.41602 131.97L15.3013 131.728L18.4459 181.752Z" fill="black"/>
<path d="M17.2367 210.51L7.56079 210.751C5.14181 210.751 2.96472 209.06 2.48093 206.643L0.0619526 190.693C-0.421842 187.794 1.99713 185.135 4.8999 185.135H17.9624L20.8651 206.16C21.3489 208.335 19.6557 210.51 17.2367 210.51Z" fill="#DAD1D1"/>
<path d="M872.099 177.644L868.229 141.878C867.503 134.387 861.698 128.104 854.199 126.654L698.66 94.271C693.58 93.3044 688.742 90.6461 684.872 87.0212L653.909 56.8135C639.395 42.5555 619.801 34.5807 599.24 34.5807H389.274C383.227 34.5807 377.421 36.514 372.583 40.3805L301.224 95.2377C293.967 100.796 285.5 103.937 276.308 104.421L33.2024 116.504C18.4467 117.229 7.56135 119.887 9.49652 134.628L15.5439 192.386C16.9953 203.985 26.1874 213.168 37.7984 214.618L91.7413 221.627H732.283L743.894 220.902L748.732 220.66L841.62 214.135C860.246 212.443 874.035 196.01 872.099 177.644ZM472.003 105.871H313.56L382.259 52.9469C384.194 51.497 386.613 50.5303 389.274 50.5303H475.873L472.003 105.871Z" fill="#F9B233"/>
<path opacity="0.75" d="M261.309 112.396L33.4425 123.754C28.3627 123.995 14.3327 124.479 16.2678 136.078L22.3153 191.419C18.4449 128.104 25.9437 131.729 52.7942 129.795L261.309 112.396Z" fill="#F6F6F6"/>
<path opacity="0.75" d="M864.842 178.369L860.972 142.603C860.488 138.012 857.101 134.387 852.747 133.42L698.417 99.8292C697.934 99.8292 695.515 101.038 695.515 101.038C845.732 136.078 852.747 133.42 864.842 178.369Z" fill="#F6F6F6"/>
<path d="M478.292 143.086L478.534 139.22L485.307 41.8303H389.032C384.678 41.8303 380.082 43.2803 376.696 45.9386L305.336 100.796C302.191 103.212 299.047 105.146 295.66 106.837L287.678 138.978L285.984 145.503L291.548 185.377L295.66 214.135H485.549L482.646 185.377L478.292 143.086ZM472.003 105.871H313.561L382.259 52.9467C384.194 51.4967 386.613 50.5301 389.274 50.5301H475.873L472.003 105.871Z" fill="white"/>
<path d="M389.274 48.8381C386.371 48.8381 383.468 49.8048 381.291 51.4964L309.932 106.354C309.448 106.837 308.964 107.079 308.238 107.562H473.696L477.808 48.8381H389.274ZM472.002 105.87H313.56L382.259 52.9464C384.194 51.4964 386.613 50.5298 389.274 50.5298H475.873L472.002 105.87Z" fill="#F9B233"/>
<path d="M485.547 143.086L489.901 185.619L492.804 214.376H605.044C606.011 203.985 609.156 194.319 613.994 185.619C623.186 168.461 638.909 155.411 658.261 149.611V139.22L658.503 115.537C658.503 109.737 656.81 104.179 653.423 99.5873L620.041 52.7051C615.203 46.1802 607.705 41.8303 599.48 41.8303H492.562L485.789 139.22L485.547 143.086Z" fill="white"/>
<path d="M615.224 55.9522C615.215 55.9388 615.205 55.9255 615.195 55.9124C611.313 50.7412 605.584 47.6009 599.302 47.3394C599.281 47.3386 599.261 47.3381 599.24 47.3381H499.095C498.307 47.3381 497.653 47.9478 497.598 48.7338L493.486 107.699C493.457 108.114 493.602 108.523 493.886 108.827C494.171 109.132 494.568 109.304 494.985 109.303L649.557 109.062C650.116 109.061 650.628 108.749 650.886 108.253C651.143 107.757 651.104 107.159 650.783 106.701L615.224 55.9522Z" fill="#1D1715" stroke="#F9B233" stroke-width="3" stroke-linejoin="round"/>
<path d="M468.858 117.954H437.17V128.104H468.858V117.954Z" fill="black"/>
<path d="M649.796 117.954H618.107V128.104H649.796V117.954Z" fill="black"/>
<path d="M871.858 177.402L872.342 181.994H852.99C843.072 181.994 835.09 189.969 835.09 199.877V200.118L877.18 198.185C882.018 197.943 886.372 194.318 885.888 189.485C885.888 188.519 885.646 187.552 885.646 186.585C885.162 181.51 880.808 177.644 875.728 177.644H871.858V177.402Z" fill="#DAD1D1"/>
<path d="M35.1391 206.16H9.73994C7.56287 206.16 5.62771 204.711 5.14391 202.536L3.69252 195.527C2.96683 192.627 5.38582 189.728 8.28858 189.728H33.6877C35.8648 189.728 37.8 191.178 38.2838 193.352L39.7351 200.361C40.4608 203.261 38.2837 206.16 35.1391 206.16Z" fill="#DAD1D1"/>
<path d="M233.735 221.385H106.014L109.642 201.327C110.852 194.802 113.512 189.002 117.141 183.927C120.769 179.094 125.365 175.227 130.687 172.569C136.251 169.669 142.54 167.977 149.313 167.977H187.775C196.483 167.977 204.466 170.636 211.239 174.986C213.416 176.435 215.351 177.885 217.044 179.577C223.817 185.86 228.655 194.318 230.59 203.985L233.735 221.385Z" fill="black"/>
<path d="M748.732 220.177L743.894 220.418L739.057 220.66L732.041 221.143H621.253L624.156 204.469L624.881 201.085C627.058 188.519 635.041 178.127 645.684 172.569C650.522 169.911 656.086 168.219 661.892 167.978C662.617 167.978 663.585 167.978 664.31 167.978H702.772C711.238 167.978 719.221 170.394 725.994 174.744C736.154 181.027 743.411 191.419 745.588 203.985L748.732 220.177Z" fill="black"/>
<g opacity="0.75">
<path opacity="0.75" d="M561.505 49L519.898 108H552.796L594.645 49H561.505Z" fill="white"/>
<path opacity="0.75" d="M546.505 49.0002L505.383 108H515.784L557.149 49.0002H546.505Z" fill="white"/>
</g>
<path d="M211.236 174.986C204.463 170.636 196.238 167.977 187.772 167.977H149.31C142.537 167.977 136.248 169.669 130.684 172.569C121.008 182.477 114.961 196.01 114.961 210.993C114.961 214.618 115.203 218.001 115.929 221.384C120.766 246.759 143.021 265.85 169.871 266.092C196.722 266.092 218.976 247.001 223.814 221.384C224.54 218.001 224.782 214.618 224.782 211.235C224.782 197.46 219.702 184.652 211.236 174.986ZM137.699 221.384C136.732 218.001 136.006 214.618 136.006 210.993C136.006 192.385 151.245 177.16 169.871 177.16C188.497 177.16 203.737 192.385 203.737 210.993C203.737 214.618 203.253 218.001 202.044 221.143C197.689 234.676 184.869 244.584 169.871 244.584C154.632 244.826 142.053 234.918 137.699 221.384Z" fill="black"/>
<path d="M726.236 174.986C719.463 170.636 711.48 168.219 703.014 168.219H664.552C657.779 168.219 651.49 169.911 645.684 172.811C636.009 182.719 630.203 196.252 630.203 210.993C630.203 214.618 630.445 218.001 631.171 221.385C636.009 246.759 658.263 265.85 685.114 266.092C712.206 266.092 734.46 246.759 739.298 220.901C739.782 217.76 740.266 214.377 740.266 211.235C740.024 197.219 734.944 184.652 726.236 174.986ZM652.941 221.385C651.974 218.001 651.248 214.618 651.248 210.993C651.248 192.385 666.488 177.161 685.114 177.161C703.74 177.161 718.979 192.385 718.979 210.993C718.979 214.618 718.495 218.001 717.286 221.143C712.932 234.676 700.111 244.584 685.114 244.584C669.874 244.826 657.295 234.918 652.941 221.385Z" fill="black"/>
<path d="M485.791 138.978L485.549 142.845L489.903 185.377H613.754C622.946 168.219 638.669 155.17 658.021 149.37V138.978H485.791Z" fill="white"/>
<path d="M294.449 145.503L300.013 185.619H475.388L471.034 143.087L471.276 138.979H296.143L294.449 145.503Z" fill="#F9B233"/>
<path d="M424.591 146.953H407.658V163.87H424.591V146.953Z" fill="black"/>
<path d="M407.657 163.87H390.725V180.786H407.657V163.87Z" fill="black"/>
<path d="M390.968 146.953H374.035V163.87H390.968V146.953Z" fill="black"/>
<path d="M374.032 163.87H357.1V180.786H374.032V163.87Z" fill="black"/>
<path d="M357.103 146.953H340.17V163.869H357.103V146.953Z" fill="black"/>
<path opacity="0.3" d="M117.138 183.927C113.268 188.76 110.607 194.801 109.64 201.326L106.011 221.384H91.4973L37.5545 214.376C31.2652 213.651 25.7016 210.509 21.5893 205.918H21.1055C21.3474 208.334 19.6542 210.268 17.2352 210.509L7.55934 210.751C5.14038 210.751 2.9633 209.059 2.47951 206.643L0.0605469 190.693C0.0605469 190.21 0.0605469 189.726 0.0605469 189.243L117.138 183.927Z" fill="#F9B233"/>
<path opacity="0.3" d="M661.891 168.219C656.085 168.461 650.522 170.153 645.684 172.811C635.04 178.369 627.058 188.761 624.881 201.327L621.252 221.385H233.734L230.589 203.985C228.896 194.319 224.058 185.861 217.043 179.577L661.649 160.245L661.891 168.219Z" fill="#F9B233"/>
<path opacity="0.3" d="M885.886 189.485C886.128 194.319 881.774 197.944 877.178 198.185L867.26 198.669C861.939 207.127 852.746 213.168 841.861 213.893L748.973 220.418L746.07 204.227C743.893 191.902 736.636 181.511 726.476 174.986C719.703 170.636 711.721 168.219 703.254 168.219H664.793C663.825 168.219 663.099 168.219 662.374 168.219L662.132 160.244L873.791 151.061L875.727 165.803C876.21 169.911 875.001 173.536 873.308 173.777H872.098L872.582 177.402H876.21C881.29 177.402 885.644 181.269 886.128 186.344C885.644 187.31 885.886 188.519 885.886 189.485Z" fill="#F9B233"/>
<path d="M473.696 109.737H308.239C307.514 109.737 306.788 109.254 306.788 108.529C306.546 107.804 306.788 107.079 307.514 106.596L308.239 106.112C308.481 105.871 308.965 105.629 309.207 105.387L380.566 50.53C383.227 48.5967 386.372 47.3884 389.517 47.3884H478.051C478.534 47.3884 479.018 47.6301 479.26 47.8718C479.502 48.1134 479.744 48.5968 479.744 49.0801L475.632 107.804C475.148 109.254 474.422 109.737 473.696 109.737ZM313.077 106.596H472.003L475.874 51.0134H389.033C386.372 51.0134 383.953 51.98 382.018 53.43L313.077 106.596Z" fill="#F9B233"/>
<path d="M332.669 84.8458L331.459 85.0875C327.589 85.5708 324.444 88.4707 323.477 92.0957L322.025 97.6539L312.35 106.595L313.317 109.012L323.235 109.979C325.654 113.604 330.008 115.778 334.604 115.053L336.297 114.812L332.669 84.8458Z" fill="#F9B233"/>
</svg>
