<svg width="71" height="71" viewBox="0 0 71 71" fill="none" xmlns="http://www.w3.org/2000/svg">
<path d="M70.15 35.7893C70.15 55.1222 54.4267 70.8302 35.075 70.8302C15.7233 70.8302 0 55.1222 0 35.7893C0 16.4563 15.7233 0.748291 35.075 0.748291C54.4267 0.989953 70.15 16.4563 70.15 35.7893Z" fill="#DAD1D1"/>
<path d="M60.7157 35.789C60.7157 49.8053 49.3466 61.4051 35.0747 61.4051C21.0446 61.4051 9.43359 50.047 9.43359 35.789C9.43359 21.7726 20.8027 10.1729 35.0747 10.1729C49.1047 10.4145 60.7157 21.7726 60.7157 35.789Z" fill="white"/>
<path d="M50.5545 35.7892C50.5545 44.2473 43.5395 51.2555 35.0731 51.2555C26.6068 51.2555 19.5918 44.2473 19.5918 35.7892C19.5918 27.331 26.3649 20.3229 35.0731 20.3229C43.5395 20.5645 50.5545 27.331 50.5545 35.7892Z" fill="#DAD1D1"/>
<path opacity="0.5" d="M21.7694 8.23987C16.4477 10.8981 11.8517 15.0064 8.70703 20.0813L35.0738 35.7892L21.7694 8.23987Z" fill="white"/>
<path opacity="0.5" d="M35.0723 35.7891L48.6185 63.8219C53.9403 61.1636 58.5363 57.0553 61.681 51.7388L35.0723 35.7891Z" fill="white"/>
</svg>
